<?xml version="1.0" encoding="utf-8"?>
<!-- Generator: Adobe Illustrator 19.1.1, SVG Export Plug-In . SVG Version: 6.00 Build 0)  -->
<svg version="1.1"
	 id="svg3626" xmlns:svg="http://www.w3.org/2000/svg" xmlns:rdf="http://www.w3.org/1999/02/22-rdf-syntax-ns#" xmlns:cc="http://creativecommons.org/ns#" xmlns:dc="http://purl.org/dc/elements/1.1/"
	 xmlns="http://www.w3.org/2000/svg" xmlns:xlink="http://www.w3.org/1999/xlink" x="0px" y="0px" viewBox="-155 274.8 300 244.2"
	 style="enable-background:new -155 274.8 300 244.2;" xml:space="preserve">
<style type="text/css">
	.st0{fill:#1DA1F2;}
	.st1{fill:#FFFFFF;}
</style>
<g id="layer1" transform="translate(-539.17946,-568.85777)">
	<path id="path3611" class="st0" d="M478.9,1086.9c112.5,0,174-93.2,174-174c0-2.4,0-4.9-0.1-7.3c0-0.4,0.2-0.7,0.4-0.9
		c10.6-7.9,17.6-22,24.8-33.6c0.6-1-0.5-2.1-1.5-1.6c-9.3,5-17.5,12.2-28.4,13.5c10.5-6.3,21.3-8,27.2-16.7c1.3-1.9-0.5-4.3-2.7-3.7
		c-10.9,3-24.2-0.8-35.9,1.3c-0.4,0.1-0.7-0.1-1-0.3c-11.1-11.6-26.8-18.9-44.2-18.9c-33.8,0-61.1,27.4-61.1,61.1
		c0,4.3,0.4,8.5,1.3,12.5c0.2,0.7-0.4,1.4-1.2,1.4c-49.6-2.9-93.7-26.6-123.5-62.5c-0.5-0.6-1.5-0.5-1.8,0.2
		c-4.8,8.7-7.5,18.7-7.5,29.3c0,19.8,9.4,37.5,24,48.6c0.9,0.7,0.4,2.1-0.8,2c-8.6-0.8-16.6-3.4-23.7-7.4c0,0.3,0,0.5,0,0.8
		c0,28,18.8,51.6,44.5,58.8c1.1,0.3,1.1,2-0.1,2.2c-3.7,0.7-7.5,1.1-11.4,1.1c-3.3,0-6.5-0.3-9.6-0.8c-0.9-0.1-1.5,0.7-1.2,1.5
		c8,22.4,28.7,38.8,53.4,40.5c1,0.1,1.4,1.4,0.6,2c-20.5,15.3-45.9,24.3-73.5,24.3c-3.3,0-6.6-0.1-9.8-0.4c-1.2-0.1-1.7,1.5-0.7,2.1
		C415.5,1077.7,446.1,1086.9,478.9,1086.9"/>
</g>
<g id="XMLID_2_">
	<path id="XMLID_7_" class="st1" d="M28.9,409c2.1,12.4,7.2,21.9,15.4,28.8c0,1.7-0.6,3.4-1.9,4.8s-2.9,1.9-4.8,1.9H14.6
		c0,3.6-1.3,6.9-3.8,9.3c-2.7,2.7-5.7,3.8-9.3,3.8s-6.9-1.3-9.3-3.8c-2.7-2.7-3.8-5.7-4-9.3L28.9,409z M1.2,453.6
		c0.6,0,0.8-0.2,0.8-0.8S1.8,452,1.2,452c-2.1,0-3.8-0.8-5.3-2.3c-1.5-1.5-2.3-3.2-2.3-5.3c0-0.6-0.2-0.8-0.8-0.8s-0.8,0.2-0.8,0.8
		c0,2.5,1,4.8,2.7,6.5C-3.5,452.8-1.2,453.6,1.2,453.6z M53.3,370.5c0.2,0.4,0.4,0.8,0.4,1.1s-0.2,0.8-0.6,1.1L-44.1,457
		c-0.4,0.2-0.8,0.4-1.1,0.4c-0.4,0-1,0-1.1-0.4l-4.4-5c-0.2-0.4-0.4-0.8-0.4-1.1s0.2-0.8,0.6-1.1l9.7-8.4c-0.6-1.1-1-2.3-1-3.4
		c1.7-1.5,3.2-3.1,4.8-4.6c1.3-1.5,2.9-3.6,4.4-6.3c1.5-2.5,2.9-5.3,3.8-8.2c1.1-2.9,1.9-6.5,2.7-10.7c0.8-4.2,1-8.8,1-13.5
		c0-5.3,2.1-10.1,6.1-14.7s9.3-7.2,16-8.2c-0.2-0.6-0.4-1.3-0.4-2.1c0-1.3,0.6-2.5,1.5-3.6c1-1,2.1-1.5,3.6-1.5s2.5,0.6,3.6,1.5
		c1,1,1.5,2.1,1.5,3.6c0,0.8-0.2,1.3-0.4,2.1c4.4,0.6,8,2.1,11.4,4.2c3.2,2.3,5.9,5,7.6,8.2l21.7-18.9c0.4-0.2,0.8-0.4,1.1-0.4
		s0.8,0.2,1.1,0.6L53.3,370.5z"/>
</g>
</svg>
